<?xml version="1.0" encoding="UTF-8"?>
<svg xmlns="http://www.w3.org/2000/svg" xmlns:xlink="http://www.w3.org/1999/xlink" viewBox="0 0 48 48" version="1.1" width="48px" height="48px">
<g id="surface1">
<path style=" fill:#FFCCBC;" d="M 24 2 C 16.007813 2 9.203125 5.925781 6.554688 11.429688 C 5.5625 15.125 5.574219 16.089844 5.46875 21.566406 C 5.402344 21.902344 5.363281 22.242188 5.363281 22.597656 C 5.363281 24.257813 6.121094 25.75 7.324219 26.777344 C 7.527344 26.949219 7.949219 27.671875 8.257813 28.304688 C 8.195313 28.574219 8.160156 28.851563 8.160156 29.121094 C 8.160156 30.351563 8.636719 31.597656 9.394531 32.65625 C 10.925781 38.046875 13.070313 39.605469 14.191406 40.382813 C 15.6875 41.421875 17.136719 41.832031 17.136719 43.191406 C 17.136719 44.738281 19.585938 46.003906 21.203125 46.003906 L 26.792969 46.003906 C 28.414063 46.003906 30.863281 44.738281 30.863281 43.191406 C 30.863281 41.835938 32.3125 41.421875 33.804688 40.382813 C 34.925781 39.605469 37.070313 38.046875 38.601563 32.660156 C 39.359375 31.601563 39.839844 30.351563 39.839844 29.121094 C 39.839844 28.851563 39.800781 28.578125 39.738281 28.308594 C 40.046875 27.675781 40.46875 26.953125 40.671875 26.777344 C 41.878906 25.75 42.636719 24.261719 42.636719 22.597656 C 42.636719 22.246094 42.597656 21.902344 42.527344 21.566406 C 42.863281 17.667969 42.1875 13.085938 41.441406 11.429688 C 38.796875 5.925781 31.992188 2 24 2 Z "/>
<path style=" fill:#FFAB91;fill-opacity:0.509804;" d="M 25.921875 2.132813 C 25.863281 2.128906 25.804688 2.121094 25.742188 2.117188 C 25.800781 2.125 25.859375 2.128906 25.917969 2.136719 C 25.917969 2.132813 25.921875 2.132813 25.921875 2.132813 Z "/>
<path style=" fill:#FFAB91;" d="M 32.730469 38.941406 C 30.71875 40.496094 27.5625 41.5 24 41.5 C 17.925781 41.5 13 38.589844 13 35 C 13 34.339844 13.171875 33.699219 13.480469 33.101563 C 13.054688 33.320313 12.574219 33.449219 12.0625 33.449219 C 10.28125 33.449219 8.839844 31.960938 8.839844 30.125 C 8.839844 28.617188 9.816406 27.359375 11.148438 26.949219 C 9.476563 24.394531 8.5 21.316406 8.5 18 C 8.5 9.824219 14.441406 3.09375 22.109375 2.132813 C 14.949219 2.695313 8.992188 6.410156 6.554688 11.476563 C 5.5625 15.171875 5.574219 16.136719 5.46875 21.613281 C 5.402344 21.949219 5.363281 22.292969 5.363281 22.644531 C 5.363281 24.308594 6.121094 25.796875 7.324219 26.824219 C 7.527344 27 7.949219 27.71875 8.257813 28.351563 C 8.195313 28.625 8.160156 28.898438 8.160156 29.171875 C 8.160156 30.398438 8.636719 31.644531 9.394531 32.703125 C 10.925781 38.09375 13.070313 39.652344 14.191406 40.433594 C 15.6875 41.46875 17.136719 41.882813 17.136719 43.242188 C 17.136719 44.785156 19.585938 46.050781 21.203125 46.050781 L 26.796875 46.050781 C 28.414063 46.050781 30.863281 44.785156 30.863281 43.242188 C 30.863281 41.882813 32.3125 41.472656 33.808594 40.433594 C 34.328125 40.070313 35.070313 39.535156 35.867188 38.53125 C 34.847656 38.734375 33.804688 38.886719 32.730469 38.941406 Z "/>
<path style=" fill:#424242;" d="M 35.996094 15.519531 C 34.683594 14.378906 33.308594 14 32 14 C 28.5625 14 26.804688 17.074219 26.4375 17.4375 C 25.851563 18.023438 25.851563 18.976563 26.4375 19.558594 C 27.023438 20.144531 27.976563 20.144531 28.558594 19.558594 C 28.972656 19.148438 30.3125 16 33 16 C 33.886719 16 34.882813 16.261719 35.996094 16.804688 C 36.628906 17.109375 36.6875 16.117188 35.996094 15.519531 Z "/>
<path style=" fill:#FFAB91;" d="M 20.550781 18.917969 C 20.484375 18.546875 22.167969 20.5 22 23.417969 C 21.832031 26.335938 18.757813 26.164063 19.464844 29 C 18.167969 27.988281 18.75 24.71875 18.75 24.71875 L 16.5 21.003906 C 16.5 21.003906 21.351563 23.5 20.550781 18.917969 Z "/>
<path style=" fill:#424242;" d="M 28 24.199219 C 28 25.742188 30.09375 24.597656 31.597656 24.597656 C 33.101563 24.597656 35 25.859375 35 23.867188 C 35 21.855469 33.003906 21.007813 31.5 21.007813 C 29.996094 21.007813 28 22.65625 28 24.199219 Z "/>
<path style=" fill:#424242;" d="M 12.003906 15.519531 C 13.316406 14.378906 14.691406 14 16 14 C 19.4375 14 21.195313 17.074219 21.5625 17.4375 C 22.148438 18.023438 22.148438 18.976563 21.5625 19.558594 C 20.976563 20.144531 20.023438 20.144531 19.441406 19.558594 C 19.027344 19.148438 17.6875 16 15 16 C 14.113281 16 13.117188 16.261719 12.003906 16.804688 C 11.371094 17.109375 11.3125 16.117188 12.003906 15.519531 Z "/>
<path style=" fill:#424242;" d="M 20 24.199219 C 20 25.742188 17.90625 24.597656 16.402344 24.597656 C 14.898438 24.597656 13 25.859375 13 23.863281 C 13 21.851563 14.996094 21.003906 16.5 21.003906 C 18.003906 21.003906 20 22.65625 20 24.199219 Z "/>
<path style=" fill:#EEEEEE;" d="M 36 27 C 37.277344 27.6875 38 28.546875 38 29.46875 C 38 31.402344 36.433594 32.96875 34.5 32.96875 C 32.980469 32.96875 30.410156 29.027344 28.539063 29 C 28.085938 29.617188 27.355469 30.023438 26.53125 30.023438 C 26.394531 30.023438 26.097656 30.125 26.03125 30.199219 C 25.882813 30.726563 24.941406 30.988281 24 30.988281 C 23.0625 30.988281 22.121094 30.726563 21.972656 30.199219 C 21.90625 30.125 21.605469 30.023438 21.472656 30.023438 C 20.644531 30.023438 19.917969 29.617188 19.464844 29 C 17.589844 29.023438 15.019531 32.96875 13.503906 32.96875 C 11.570313 32.96875 10.003906 31.402344 10.003906 29.46875 C 10.003906 28.546875 10.957031 27.597656 12.003906 27 C 9.425781 27 7.003906 29.570313 7.003906 31.96875 C 7.003906 34.730469 9.222656 37.625 11.878906 38.386719 C 13.953125 38.984375 14.992188 39 19 39 L 29 39 C 33.007813 39 34.046875 38.984375 36.125 38.386719 C 38.777344 37.625 41 34.730469 41 31.96875 C 41 29.570313 38.5 27 36 27 Z "/>
<path style=" fill:#EEEEEE;" d="M 38.238281 16.277344 C 38.335938 16.109375 38.464844 15.972656 38.609375 15.851563 C 38.574219 15.808594 38.539063 15.769531 38.511719 15.722656 C 38.019531 14.898438 38.3125 13.832031 39.164063 13.355469 L 42.96875 11.230469 C 43.820313 10.753906 44.921875 11.039063 45.414063 11.863281 C 45.90625 12.6875 45.613281 13.753906 44.761719 14.230469 L 44.042969 14.628906 L 44.460938 14.628906 C 45.308594 14.628906 46 15.300781 46 16.121094 C 46 16.941406 45.308594 17.609375 44.460938 17.609375 L 44.203125 17.609375 L 44.488281 17.769531 C 45.339844 18.242188 45.632813 19.308594 45.140625 20.132813 C 44.648438 20.960938 43.550781 21.242188 42.695313 20.769531 L 38.894531 18.640625 C 38.039063 18.167969 37.746094 17.101563 38.238281 16.277344 Z "/>
<path style=" fill:#EEEEEE;" d="M 9.761719 16.277344 C 9.664063 16.109375 9.535156 15.972656 9.390625 15.851563 C 9.425781 15.808594 9.460938 15.769531 9.488281 15.722656 C 9.980469 14.898438 9.6875 13.832031 8.835938 13.355469 L 5.03125 11.230469 C 4.179688 10.753906 3.078125 11.039063 2.585938 11.863281 C 2.09375 12.6875 2.386719 13.753906 3.238281 14.230469 L 3.957031 14.628906 L 3.539063 14.628906 C 2.691406 14.628906 2 15.300781 2 16.121094 C 2 16.941406 2.691406 17.609375 3.539063 17.609375 L 3.796875 17.609375 L 3.511719 17.769531 C 2.660156 18.242188 2.367188 19.308594 2.859375 20.132813 C 3.351563 20.960938 4.449219 21.242188 5.304688 20.769531 L 9.105469 18.640625 C 9.960938 18.167969 10.253906 17.101563 9.761719 16.277344 Z "/>
</g>
</svg>
